<mxfile host="app.diagrams.net" modified="2022-01-12T04:38:40.602Z" agent="5.0 (Windows NT 10.0; Win64; x64) AppleWebKit/537.36 (KHTML, like Gecko) Chrome/93.0.4577.63 Safari/537.36" etag="MHkrn4XPs9jf8BNaif44" version="16.2.4" type="github">
  <diagram id="Ee6iltyrOMIBV6x1gp6D" name="Page-1">
    <mxGraphModel dx="1865" dy="547" grid="1" gridSize="10" guides="1" tooltips="1" connect="1" arrows="1" fold="1" page="1" pageScale="1" pageWidth="827" pageHeight="1169" math="0" shadow="0">
      <root>
        <mxCell id="0" />
        <mxCell id="1" parent="0" />
        <mxCell id="MCCIj_tEct1RLFeP_CjE-14" style="edgeStyle=orthogonalEdgeStyle;rounded=0;orthogonalLoop=1;jettySize=auto;html=1;entryX=0;entryY=0.5;entryDx=0;entryDy=0;" parent="1" source="MCCIj_tEct1RLFeP_CjE-3" target="MCCIj_tEct1RLFeP_CjE-13" edge="1">
          <mxGeometry relative="1" as="geometry" />
        </mxCell>
        <mxCell id="MCCIj_tEct1RLFeP_CjE-16" value="token" style="edgeLabel;html=1;align=center;verticalAlign=middle;resizable=0;points=[];" parent="MCCIj_tEct1RLFeP_CjE-14" vertex="1" connectable="0">
          <mxGeometry x="0.3224" y="-2" relative="1" as="geometry">
            <mxPoint x="-32" y="-2" as="offset" />
          </mxGeometry>
        </mxCell>
        <mxCell id="MCCIj_tEct1RLFeP_CjE-3" value="main.run" style="rounded=0;whiteSpace=wrap;html=1;align=left;" parent="1" vertex="1">
          <mxGeometry x="130" y="130" width="140" height="90" as="geometry" />
        </mxCell>
        <mxCell id="MCCIj_tEct1RLFeP_CjE-23" style="edgeStyle=orthogonalEdgeStyle;rounded=0;orthogonalLoop=1;jettySize=auto;html=1;exitX=0.75;exitY=0;exitDx=0;exitDy=0;entryX=0;entryY=0.5;entryDx=0;entryDy=0;" parent="1" source="MCCIj_tEct1RLFeP_CjE-13" target="MCCIj_tEct1RLFeP_CjE-22" edge="1">
          <mxGeometry relative="1" as="geometry" />
        </mxCell>
        <mxCell id="MCCIj_tEct1RLFeP_CjE-24" value="Client" style="edgeLabel;html=1;align=center;verticalAlign=middle;resizable=0;points=[];" parent="MCCIj_tEct1RLFeP_CjE-23" vertex="1" connectable="0">
          <mxGeometry x="0.2424" y="3" relative="1" as="geometry">
            <mxPoint as="offset" />
          </mxGeometry>
        </mxCell>
        <mxCell id="MCCIj_tEct1RLFeP_CjE-13" value="src.Robot" style="rounded=0;whiteSpace=wrap;html=1;align=left;" parent="1" vertex="1">
          <mxGeometry x="440" y="145" width="220" height="175" as="geometry" />
        </mxCell>
        <mxCell id="MCCIj_tEct1RLFeP_CjE-19" style="edgeStyle=orthogonalEdgeStyle;rounded=0;orthogonalLoop=1;jettySize=auto;html=1;entryX=0.5;entryY=0;entryDx=0;entryDy=0;" parent="1" source="MCCIj_tEct1RLFeP_CjE-18" target="MCCIj_tEct1RLFeP_CjE-13" edge="1">
          <mxGeometry relative="1" as="geometry">
            <Array as="points">
              <mxPoint x="500" y="100" />
              <mxPoint x="500" y="100" />
            </Array>
          </mxGeometry>
        </mxCell>
        <mxCell id="MCCIj_tEct1RLFeP_CjE-20" value="storage" style="edgeLabel;html=1;align=center;verticalAlign=middle;resizable=0;points=[];" parent="MCCIj_tEct1RLFeP_CjE-19" vertex="1" connectable="0">
          <mxGeometry x="-0.7271" relative="1" as="geometry">
            <mxPoint y="28" as="offset" />
          </mxGeometry>
        </mxCell>
        <mxCell id="MCCIj_tEct1RLFeP_CjE-18" value="src.Storage" style="rounded=0;whiteSpace=wrap;html=1;" parent="1" vertex="1">
          <mxGeometry x="440" y="10" width="120" height="50" as="geometry" />
        </mxCell>
        <mxCell id="MCCIj_tEct1RLFeP_CjE-22" value="&lt;pre style=&quot;background-color: #2b2b2b ; color: #a9b7c6 ; font-family: &amp;#34;jetbrains mono&amp;#34; , monospace ; font-size: 9.8pt&quot;&gt;&lt;pre style=&quot;font-family: &amp;#34;jetbrains mono&amp;#34; , monospace ; font-size: 9.8pt&quot;&gt;src.controller.preRoute.addMoneyToUsersInVoiceChannels.addMoneyToVoiceChnnels&lt;/pre&gt;&lt;/pre&gt;" style="rounded=0;whiteSpace=wrap;html=1;align=left;" parent="1" vertex="1">
          <mxGeometry x="690" y="20" width="580" height="80" as="geometry" />
        </mxCell>
        <mxCell id="MCCIj_tEct1RLFeP_CjE-27" style="edgeStyle=orthogonalEdgeStyle;rounded=0;orthogonalLoop=1;jettySize=auto;html=1;entryX=0.5;entryY=1;entryDx=0;entryDy=0;" parent="1" source="MCCIj_tEct1RLFeP_CjE-26" target="MCCIj_tEct1RLFeP_CjE-13" edge="1">
          <mxGeometry relative="1" as="geometry" />
        </mxCell>
        <mxCell id="MCCIj_tEct1RLFeP_CjE-26" value="src.model.makeDatabaseConnection" style="rounded=0;whiteSpace=wrap;html=1;align=left;" parent="1" vertex="1">
          <mxGeometry x="740" y="410" width="220" height="90" as="geometry" />
        </mxCell>
        <mxCell id="54Qqrou3z5WnFFPdxFxg-5" style="edgeStyle=orthogonalEdgeStyle;rounded=0;orthogonalLoop=1;jettySize=auto;html=1;exitX=1;exitY=0.5;exitDx=0;exitDy=0;" edge="1" parent="1" source="54Qqrou3z5WnFFPdxFxg-2" target="54Qqrou3z5WnFFPdxFxg-7">
          <mxGeometry relative="1" as="geometry">
            <mxPoint x="390" y="420" as="targetPoint" />
            <Array as="points">
              <mxPoint x="-280" y="420" />
              <mxPoint x="-230" y="420" />
            </Array>
          </mxGeometry>
        </mxCell>
        <mxCell id="54Qqrou3z5WnFFPdxFxg-6" value="isBooster" style="edgeLabel;html=1;align=center;verticalAlign=middle;resizable=0;points=[];" vertex="1" connectable="0" parent="54Qqrou3z5WnFFPdxFxg-5">
          <mxGeometry x="-0.3237" y="-1" relative="1" as="geometry">
            <mxPoint as="offset" />
          </mxGeometry>
        </mxCell>
        <mxCell id="54Qqrou3z5WnFFPdxFxg-2" value="src.checkIfMessagerIsBooster" style="rounded=0;whiteSpace=wrap;html=1;align=left;" vertex="1" parent="1">
          <mxGeometry x="-510" y="600" width="230" height="60" as="geometry" />
        </mxCell>
        <mxCell id="54Qqrou3z5WnFFPdxFxg-8" style="edgeStyle=orthogonalEdgeStyle;rounded=0;orthogonalLoop=1;jettySize=auto;html=1;entryX=0.078;entryY=1.003;entryDx=0;entryDy=0;entryPerimeter=0;" edge="1" parent="1" source="54Qqrou3z5WnFFPdxFxg-7" target="MCCIj_tEct1RLFeP_CjE-13">
          <mxGeometry relative="1" as="geometry" />
        </mxCell>
        <mxCell id="54Qqrou3z5WnFFPdxFxg-11" value="&lt;pre style=&quot;background-color: #2b2b2b ; color: #a9b7c6 ; font-family: &amp;#34;jetbrains mono&amp;#34; , monospace ; font-size: 9.8pt&quot;&gt;addMoneyToUserForMessageResult &lt;span style=&quot;color: #cc7832&quot;&gt;and &lt;/span&gt;addMoneyToUserForCheckInResult&lt;/pre&gt;" style="edgeLabel;html=1;align=center;verticalAlign=middle;resizable=0;points=[];" vertex="1" connectable="0" parent="54Qqrou3z5WnFFPdxFxg-8">
          <mxGeometry x="-0.3059" y="1" relative="1" as="geometry">
            <mxPoint x="89" y="1" as="offset" />
          </mxGeometry>
        </mxCell>
        <mxCell id="54Qqrou3z5WnFFPdxFxg-7" value="src.controller.preRoute.registerAndAddMoneyWhenSendingMsg" style="rounded=0;whiteSpace=wrap;html=1;" vertex="1" parent="1">
          <mxGeometry x="-470" y="320" width="430" height="50" as="geometry" />
        </mxCell>
      </root>
    </mxGraphModel>
  </diagram>
</mxfile>
